# xmcd
#
# Track frame offsets: 
#        150
#        15208
#        30954
#        46155
#        60555
#        79108
#        94778
#        108571
#        125570
#        146300
#        163093
#        177589
#        194978
#        209153
#        222731
#        236678
#        247576
#        263971
#        277271
#        292138
#        309901
#        321511
#        333651
#
# Disc length: 4634 seconds
#
# Revision: 1
# Processed by: cddbd v1.5.2PL0 Copyright (c) Steve Scherf et al.
# Submitted via: ExactAudioCopy v0.99pb3
#
DISCID=66121817
DTITLE=Norah Jones - Feels like home
DYEAR=1900
DGENRE=Vocal
TTITLE0=Sunrise
TTITLE1=What Am I To You
TTITLE2=Those Sweet words
TTITLE3=Carnivaltown
TTITLE4=In The Morning
TTITLE5=Be Here To Love Me
TTITLE6=Creepin' In
TTITLE7=Toes
TTITLE8=Humble Me
TTITLE9=Above Ground
TTITLE10=The Long Way Home
TTITLE11=The Prettiest Thing
TTITLE12=Don't Miss You At All
TTITLE13=Ruler Of My Heart
TTITLE14=Don't Know Why
TTITLE15=Seven Years
TTITLE16=Cold, Cold Heart
TTITLE17=Feelin' the Same Way
TTITLE18=Come Away With Me
TTITLE19=Shoot The Moon
TTITLE20=Turn Me On
TTITLE21=Painter Song
TTITLE22=One Fight Down
EXTD=
EXTT0=
EXTT1=
EXTT2=
EXTT3=
EXTT4=
EXTT5=
EXTT6=
EXTT7=
EXTT8=
EXTT9=
EXTT10=
EXTT11=
EXTT12=
EXTT13=
EXTT14=
EXTT15=
EXTT16=
EXTT17=
EXTT18=
EXTT19=
EXTT20=
EXTT21=
EXTT22=
PLAYORDER=
